<svg version="1.1" id="Layer_1" xmlns="http://www.w3.org/2000/svg" xmlns:xlink="http://www.w3.org/1999/xlink" x="0px" y="0px"
	 width="100%" viewBox="0 0 3285 896" enable-background="new 0 0 3285 896" xml:space="preserve">
<path fill="#FFFFFF" opacity="1.000000" stroke="none" 
	d="
M3286.000000,638.000000 
	C3286.000000,724.262512 3286.000000,810.525024 3286.000000,897.000000 
	C3206.969238,897.000000 3127.938232,897.000000 3048.585938,896.618286 
	C3064.280029,893.594482 3076.470703,885.154175 3084.833252,871.406860 
	C3090.352539,862.332825 3092.874023,852.370911 3092.143799,841.606323 
	C3092.037598,840.037476 3093.470215,837.811035 3094.854736,836.785828 
	C3102.638916,831.023071 3110.614990,825.519226 3118.545898,819.955994 
	C3144.190430,801.967163 3169.833740,783.976685 3195.497070,766.015015 
	C3210.955322,755.195740 3226.450439,744.428833 3242.232666,733.426636 
	C3240.974365,732.296631 3239.916748,731.225342 3238.739258,730.307739 
	C3222.347168,717.532593 3205.874512,704.859741 3189.552002,691.996277 
	C3172.941162,678.905396 3156.504639,665.593384 3139.935303,652.449341 
	C3124.275879,640.027161 3108.514893,627.732239 3092.903809,615.250000 
	C3091.830322,614.391602 3090.918701,612.317932 3091.135986,611.009338 
	C3094.655273,589.817444 3089.448975,571.913147 3072.448242,557.831116 
	C3060.366943,547.823853 3046.320068,544.243530 3031.426514,546.234802 
	C3008.352051,549.319824 2989.531982,567.095276 2985.842285,590.751465 
	C2982.959717,609.234070 2987.957764,624.994324 3000.692871,637.984253 
	C3016.635742,654.245667 3041.929443,658.149353 3064.629639,647.289490 
	C3100.005615,675.030945 3135.401123,702.787537 3171.077393,730.764465 
	C3170.311279,731.403931 3169.589600,732.109985 3168.770508,732.674561 
	C3157.082764,740.732971 3145.355225,748.734009 3133.689941,756.824707 
	C3113.926025,770.532349 3094.226318,784.332764 3074.399414,797.948242 
	C3073.000000,798.909241 3070.152100,799.602966 3069.034424,798.850769 
	C3055.965820,790.056641 3041.707520,788.072815 3026.591553,791.035461 
	C3010.594971,794.170593 2998.842773,803.767151 2991.220215,817.568298 
	C2985.089355,828.668579 2983.130371,841.107605 2985.976807,853.923706 
	C2990.091797,872.452026 3000.679199,885.545776 3018.163330,893.072021 
	C3020.561279,894.104370 3022.726807,895.677368 3025.000000,897.000000 
	C2017.000000,897.000000 1009.000000,897.000000 1.000000,897.000000 
	C1.000000,880.236145 1.000000,863.571655 1.379040,846.582703 
	C3.813271,858.326477 9.261015,868.447693 18.280169,876.873718 
	C32.927990,890.558350 50.305672,894.129456 68.949127,889.333618 
	C94.131538,882.855652 111.019180,859.265442 108.142502,831.827087 
	C106.093117,812.279602 95.887383,798.695007 79.471527,789.496826 
	C76.055458,787.582703 76.007790,785.888550 76.007690,783.188293 
	C75.999367,554.742676 76.000000,326.297028 76.000000,97.851395 
	C76.000000,96.324883 76.000000,94.798378 76.000000,93.014336 
	C91.352364,107.845665 106.230339,122.085197 120.957802,136.478745 
	C141.288956,156.348907 161.529877,176.311600 181.767197,196.277496 
	C209.951447,224.083740 238.069580,251.957047 266.270996,279.745850 
	C278.568939,291.863831 291.057312,303.788483 303.359161,315.902588 
	C313.687073,326.072876 323.914886,336.346649 334.038452,346.719574 
	C334.928101,347.631165 335.254059,349.751923 334.926331,351.086182 
	C332.706787,360.123047 331.153137,368.979645 332.820251,378.504822 
	C335.485809,393.734711 342.932953,405.346588 355.478241,414.152557 
	C365.689819,421.320343 376.964447,423.434082 389.165558,423.078491 
	C401.747498,422.711792 412.449890,418.048370 421.595093,409.810760 
	C434.794281,397.921417 440.772583,383.110413 439.082672,365.187195 
	C438.312195,357.015381 436.188782,349.597870 432.157562,342.341736 
	C419.927338,320.327698 393.238586,311.103455 369.487793,318.074463 
	C368.071655,318.490082 365.751434,317.937897 364.645203,316.948853 
	C358.235474,311.218140 352.037018,305.249146 345.816833,299.308716 
	C330.242828,284.435120 314.696075,269.533020 299.137268,254.643539 
	C283.698608,239.869049 268.255157,225.099579 252.820099,210.321335 
	C236.903915,195.082443 221.001373,179.829300 205.081680,164.594101 
	C190.004242,150.164978 174.895203,135.768860 159.831253,121.325699 
	C142.723404,104.922874 125.620300,88.514870 108.571663,72.050575 
	C95.793022,59.709927 83.103516,47.276981 70.376030,34.883385 
	C69.898918,34.418789 69.451645,33.923309 68.970375,33.463245 
	C57.648590,22.640413 46.324043,11.820471 35.000000,1.000000 
	C461.697601,1.000000 888.395203,1.000000 1315.546387,1.468657 
	C1316.000000,7.961372 1316.000000,13.985430 1316.000000,20.009487 
	C1316.000000,118.338120 1315.988159,216.666763 1316.049561,314.995361 
	C1316.051636,318.381989 1315.525146,320.438293 1311.957764,322.214996 
	C1307.242798,324.563110 1302.589111,327.769562 1299.074707,331.660034 
	C1286.774414,345.276459 1281.537109,361.121735 1284.934692,379.643463 
	C1290.435425,409.630402 1316.793457,427.352631 1346.771729,422.664886 
	C1372.608398,418.624756 1391.564697,397.206696 1391.087280,369.374207 
	C1390.715088,347.683716 1381.156128,331.949677 1362.221558,321.807739 
	C1359.593628,320.400116 1358.945557,318.783661 1358.947754,316.022858 
	C1359.012451,236.860016 1358.998291,157.697113 1359.016113,78.534225 
	C1359.016357,77.352669 1359.261108,76.171158 1359.427734,74.663292 
	C1439.886719,132.525467 1519.837280,190.021957 1599.949585,247.634796 
	C1533.500000,314.072174 1467.280518,380.279572 1400.570923,446.977020 
	C1466.916748,513.322510 1533.206421,579.611877 1599.360474,645.765625 
	C1519.617188,703.106873 1439.634521,760.620300 1359.000000,818.602417 
	C1359.000000,816.769470 1359.000000,815.810913 1359.000000,814.852417 
	C1359.000000,735.189575 1359.022705,655.526672 1358.916748,575.863953 
	C1358.912598,572.672241 1360.383301,571.534912 1362.711670,569.915222 
	C1368.565186,565.843201 1375.179932,562.116638 1379.454712,556.658203 
	C1395.034790,536.764526 1395.293213,509.447357 1380.247437,489.510681 
	C1367.010498,471.970551 1343.345093,464.736694 1322.669067,470.874939 
	C1301.622803,477.123077 1289.213623,491.263855 1284.840332,513.031921 
	C1280.800537,533.140808 1290.559082,558.034302 1309.285278,567.972168 
	C1314.401001,570.687012 1316.192871,574.116333 1316.178101,580.189819 
	C1315.928955,682.351013 1316.000000,784.512939 1316.000000,886.674744 
	C1316.000000,888.411926 1316.000000,890.149109 1316.000000,892.941284 
	C1318.114014,891.140503 1319.231323,890.003113 1320.521606,889.117310 
	C1341.534180,874.692200 1362.610718,860.359802 1383.588257,845.883850 
	C1412.950439,825.621887 1442.249390,805.268188 1471.562256,784.934631 
	C1489.072144,772.788513 1506.518311,760.550293 1524.061768,748.452637 
	C1551.425049,729.583496 1578.861694,710.820435 1606.238647,691.970825 
	C1625.876221,678.449951 1645.467041,664.861084 1664.813599,651.485901 
	C1596.619995,583.296387 1528.540894,515.221191 1459.888916,446.573151 
	C1528.596313,377.868286 1596.673096,309.794037 1664.888916,241.580872 
	C1659.057617,237.482407 1653.040771,233.214569 1646.984253,229.003845 
	C1624.581909,213.429092 1602.185425,197.845840 1579.750732,182.317688 
	C1555.992065,165.872986 1532.205322,149.468719 1508.407227,133.081039 
	C1484.090454,116.336288 1459.721191,99.667755 1435.418335,82.902969 
	C1405.124878,62.005886 1374.851074,41.080173 1344.622925,20.088797 
	C1335.654785,13.860962 1326.869263,7.370258 1318.000000,0.999986 
	C1973.896729,1.000000 2629.793457,1.000000 3286.000000,1.000000 
	C3286.000000,206.697495 3286.000000,412.395142 3285.633057,618.432251 
	C3284.908203,618.050110 3284.373047,617.364319 3284.218262,616.601379 
	C3281.715088,604.273315 3275.680176,594.182556 3265.815430,586.244812 
	C3256.418457,578.683472 3245.738525,574.585876 3233.831543,574.070984 
	C3219.239746,573.439819 3206.449463,578.530884 3195.593750,587.617188 
	C3191.238037,583.780396 3187.097656,580.251282 3183.087646,576.579346 
	C3170.564209,565.110596 3158.052734,553.627930 3145.608643,542.073547 
	C3134.709473,531.953430 3123.959473,521.672607 3113.038818,511.575836 
	C3107.985840,506.904205 3102.604980,502.588287 3097.516846,497.953094 
	C3092.185791,493.097260 3087.027100,488.052032 3081.479492,482.792206 
	C3109.792480,459.018494 3137.797119,435.503693 3165.996338,411.825439 
	C3169.091553,413.786255 3172.078857,416.005951 3175.342041,417.691986 
	C3193.874023,427.267700 3222.396484,424.527710 3238.667969,407.117920 
	C3254.559082,390.115448 3258.101562,365.027100 3247.938232,345.127838 
	C3237.228271,324.157867 3214.414307,312.284454 3189.554688,316.892029 
	C3164.567627,321.523163 3146.459961,343.435333 3146.149170,368.133972 
	C3146.099854,372.035370 3144.537354,374.353394 3141.978760,376.481415 
	C3130.567139,385.973267 3119.048340,395.336578 3107.669678,404.867523 
	C3098.387451,412.642242 3089.354736,420.716949 3080.019775,428.426422 
	C3068.226074,438.167023 3056.105957,447.514374 3044.375244,457.328918 
	C3035.110840,465.080170 3026.222656,473.280823 3016.983154,481.444641 
	C3026.162842,489.645050 3035.499512,497.895050 3044.734131,506.257599 
	C3056.334473,516.762085 3067.836670,527.374512 3079.408203,537.911133 
	C3090.241455,547.775696 3101.166504,557.540649 3111.948486,567.460815 
	C3125.915771,580.311035 3139.742432,593.313782 3153.712158,606.161377 
	C3158.410156,610.482056 3163.675293,614.222473 3168.105957,618.786743 
	C3172.485352,623.298279 3179.131348,626.448425 3178.384033,634.610779 
	C3178.131836,637.365417 3179.217529,640.328491 3180.059570,643.083923 
	C3188.967041,672.235229 3216.276855,686.392395 3242.908691,680.687256 
	C3264.070801,676.153870 3278.410889,662.612610 3284.049316,640.983154 
	C3284.333496,639.893311 3285.333496,638.990173 3286.000000,638.000000 
M1212.322754,790.029602 
	C1200.500977,783.634033 1187.924805,782.810730 1174.724121,784.836121 
	C1060.224854,646.335083 945.570801,507.646667 830.000000,367.849304 
	C830.000000,371.401154 830.000000,373.211365 830.000000,375.021576 
	C830.000000,510.685486 830.000000,646.349365 829.999939,782.013306 
	C829.999939,783.346619 830.188660,784.716797 829.938660,786.001587 
	C829.739136,787.027161 829.255615,788.332397 828.464172,788.849731 
	C825.131042,791.028992 821.444458,792.696350 818.231323,795.025635 
	C803.679016,805.575317 797.453857,820.683838 797.286499,837.919189 
	C797.195862,847.251770 799.702515,856.507690 804.863098,865.013977 
	C816.533997,884.251282 836.826782,893.600769 858.435974,890.813110 
	C879.209229,888.133179 893.788574,876.031982 901.535828,856.716248 
	C907.634399,841.511108 906.377075,825.944641 898.673523,811.598083 
	C892.833313,800.721802 884.062561,792.248413 872.246338,787.793640 
	C872.246338,686.891541 872.246338,586.171143 872.246338,484.645111 
	C961.857605,593.469177 1050.973755,701.692078 1140.048828,809.864929 
	C1124.436157,837.879761 1135.168457,870.917236 1159.792114,884.352478 
	C1186.442261,898.893311 1218.888062,889.497498 1233.036499,864.677124 
	C1247.795654,838.785522 1239.379883,805.047791 1212.322754,790.029602 
M956.029297,430.548340 
	C961.663147,437.509491 967.248840,444.510376 972.943176,451.421722 
	C979.903687,459.869751 987.001526,468.204742 993.955872,476.657776 
	C1002.544922,487.097687 1011.005981,497.642914 1019.600403,508.078308 
	C1026.664307,516.655273 1033.895752,525.094116 1040.955444,533.674500 
	C1049.439697,543.986389 1057.766479,554.428101 1066.263184,564.729492 
	C1073.334106,573.302307 1080.627563,581.691589 1087.687012,590.273499 
	C1097.829102,602.603088 1107.808472,615.066528 1117.934082,627.409790 
	C1124.876953,635.873169 1131.998779,644.189514 1138.953369,652.643250 
	C1147.541748,663.082703 1156.023926,673.609314 1164.581543,684.074036 
	C1171.703247,692.782715 1178.869995,701.454590 1186.012573,710.146179 
	C1192.635376,718.205200 1199.243774,726.276184 1205.898193,734.308960 
	C1206.229614,734.709106 1206.939575,734.795654 1208.000000,735.257751 
	C1208.000000,732.952759 1208.000000,731.175964 1208.000000,729.399231 
	C1208.000000,627.576965 1208.016357,525.754700 1207.930908,423.932465 
	C1207.927979,420.430542 1208.773804,418.625061 1212.141724,416.841461 
	C1228.092407,408.394196 1237.705200,394.748779 1239.777710,377.045959 
	C1242.060913,357.544342 1236.110229,340.714935 1220.312744,327.627716 
	C1200.584961,311.284637 1168.330322,311.881104 1149.144775,330.463196 
	C1137.598145,341.646515 1132.158813,355.489868 1132.960571,371.757111 
	C1133.962158,392.074066 1143.079102,407.314178 1161.039307,416.859070 
	C1164.275635,418.579010 1165.061401,420.314240 1165.057373,423.614258 
	C1164.979614,486.274048 1165.000000,548.933960 1165.000000,611.593811 
	C1165.000000,613.004272 1165.000000,614.414795 1165.000000,616.856567 
	C1163.204346,615.357422 1162.112549,614.696106 1161.344971,613.766907 
	C1152.210083,602.709045 1143.165649,591.576355 1134.010864,580.535095 
	C1126.811890,571.852600 1119.437622,563.315369 1112.240112,554.631714 
	C1103.190186,543.713196 1094.285889,532.673706 1085.234009,521.756897 
	C1077.929077,512.947144 1070.440186,504.289917 1063.136963,495.478790 
	C1052.525879,482.676819 1042.036743,469.773712 1031.440918,456.958984 
	C1024.359497,448.394562 1017.142700,439.942078 1010.059021,431.379395 
	C1001.125366,420.580444 992.377747,409.624634 983.286926,398.960663 
	C981.265930,396.589966 980.687683,394.992615 982.272095,392.191376 
	C987.768494,382.473816 988.526062,371.499420 986.699158,361.161438 
	C982.717346,338.629242 969.403198,323.166656 946.808044,317.496826 
	C924.769836,311.966827 902.578552,319.621948 889.133789,338.636902 
	C879.542725,352.201538 877.591675,367.651581 881.373047,383.358002 
	C884.259094,395.345398 891.003235,405.477661 901.355103,412.917694 
	C912.564331,420.973877 925.050293,424.770996 938.560852,422.764771 
	C946.385742,421.602753 951.650513,423.420410 956.029297,430.548340 
M2892.595215,316.000000 
	C2870.493896,317.067078 2855.541748,328.686035 2845.237305,348.104004 
	C2768.904785,348.104004 2692.143555,348.104004 2615.368652,348.104004 
	C2615.368652,433.920929 2615.368652,519.429688 2615.368652,605.000000 
	C2656.894287,605.000000 2698.051270,605.028381 2739.208496,604.945129 
	C2742.439697,604.938599 2744.471924,605.515137 2746.126465,608.783020 
	C2748.292236,613.060547 2751.019531,617.287964 2754.364746,620.692993 
	C2767.427002,633.989441 2783.132568,639.972229 2801.951904,637.047668 
	C2817.141846,634.687134 2829.371094,627.562500 2837.935547,614.858582 
	C2845.438232,603.729675 2848.876221,591.534180 2847.152588,577.772095 
	C2845.551514,564.988770 2840.701172,553.773987 2831.481201,545.316101 
	C2818.833008,533.712830 2803.842773,528.067383 2786.019775,530.860779 
	C2767.780029,533.719360 2754.726807,543.203003 2746.073486,559.109680 
	C2744.556885,561.897339 2743.114746,563.108948 2739.785889,563.088745 
	C2713.459229,562.929077 2687.131104,563.004211 2660.803467,562.986816 
	C2659.549561,562.986023 2658.295654,562.793823 2657.350830,562.716125 
	C2657.350830,505.218384 2657.350830,448.154846 2657.350830,391.097168 
	C2720.343018,391.097168 2782.984131,391.097168 2845.603760,391.097168 
	C2851.081787,403.415466 2859.893311,412.716827 2871.894287,418.236572 
	C2893.153809,428.014648 2920.191895,424.144196 2936.233643,404.281677 
	C2948.672363,388.880341 2952.198730,371.718170 2946.310059,352.788391 
	C2939.804688,331.875580 2918.474365,314.649475 2892.595215,316.000000 
M2251.999756,840.333923 
	C2252.860596,844.930359 2253.211914,849.695251 2254.666504,854.095398 
	C2262.860596,878.879395 2287.309326,895.820312 2316.466309,889.999329 
	C2348.939209,883.516541 2363.755371,853.882324 2358.661865,826.538818 
	C2355.588867,810.043030 2345.782715,797.624268 2330.980713,789.838196 
	C2327.315674,787.910217 2326.966064,786.064941 2326.966797,782.815613 
	C2327.005127,639.824402 2327.000000,496.833221 2327.000000,353.842010 
	C2327.000000,351.925568 2327.000000,350.009094 2327.000000,348.000000 
	C2293.317627,348.000000 2260.325684,347.947723 2227.334473,348.061646 
	C2222.872314,348.077057 2219.452637,347.996704 2217.645508,342.642212 
	C2216.465332,339.145874 2213.393555,336.133667 2210.732422,333.317352 
	C2196.901855,318.681458 2179.989502,313.354340 2160.197998,316.990845 
	C2135.831055,321.468170 2118.071777,342.443634 2117.076660,367.016235 
	C2116.367920,384.516113 2122.929199,399.039764 2136.156250,410.759888 
	C2148.905762,422.056580 2164.149414,425.066376 2179.985596,422.695770 
	C2198.804932,419.878540 2212.208496,408.499634 2220.394531,391.234558 
	C2241.805176,391.234558 2263.240479,391.234558 2284.836914,391.234558 
	C2284.836914,523.559448 2284.836914,655.649841 2284.836914,787.430420 
	C2263.128906,798.210144 2251.855713,815.186829 2251.999756,840.333923 
M1970.964478,505.384064 
	C1984.977783,477.525879 1998.991089,449.667664 2012.904785,422.007355 
	C2035.813232,426.023376 2057.460449,419.760559 2071.044189,397.319061 
	C2085.617432,373.242493 2079.405273,344.676666 2059.607178,328.267548 
	C2039.470703,311.578064 2012.189575,311.189117 1991.838989,327.015961 
	C1971.469482,342.857605 1962.998169,371.742340 1979.658203,399.202332 
	C1976.253052,406.547089 1973.093994,413.763306 1969.607056,420.817444 
	C1946.424561,467.716095 1923.148926,514.568726 1900.008911,561.488342 
	C1898.841431,563.855652 1898.085693,566.702271 1898.081909,569.327087 
	C1897.979370,640.652588 1897.984131,711.978210 1898.051636,783.303772 
	C1898.054688,786.552246 1897.404663,788.416626 1894.115845,790.126160 
	C1877.531616,798.746155 1868.183594,813.012085 1866.209717,831.217163 
	C1864.193604,849.812988 1870.283569,865.817139 1884.857300,878.492004 
	C1904.727661,895.773254 1936.998291,895.655823 1956.700562,876.695007 
	C1968.429810,865.407227 1973.826660,851.476501 1973.086426,834.973755 
	C1972.176025,814.681702 1962.773438,799.875610 1945.267700,790.209473 
	C1942.012573,788.412109 1940.927979,786.749451 1940.932495,783.208923 
	C1941.022583,711.716675 1940.984009,640.224426 1941.071777,568.732178 
	C1941.074707,566.409790 1941.740112,563.893066 1942.769653,561.797485 
	C1951.926636,543.155884 1961.235840,524.588989 1970.964478,505.384064 
M1755.000000,379.351807 
	C1754.922852,372.041626 1756.322998,364.336975 1754.495972,357.494049 
	C1748.651001,335.602966 1734.869263,321.234100 1711.831909,316.939850 
	C1694.151367,313.644073 1678.557129,317.961304 1665.490601,330.140381 
	C1651.897827,342.809753 1646.355469,358.512299 1648.921143,377.172638 
	C1651.014771,392.400116 1658.487427,403.993164 1670.533936,413.198975 
	C1683.624023,423.202393 1698.427856,424.247620 1713.971436,422.328613 
	C1721.062134,436.122650 1728.229126,449.803162 1735.160767,463.601990 
	C1751.568481,496.264679 1767.888916,528.971375 1784.148193,561.708191 
	C1785.186890,563.799133 1785.921631,566.298401 1785.924683,568.608887 
	C1786.016846,640.265320 1785.973022,711.921997 1786.081909,783.578369 
	C1786.087280,787.073486 1784.947754,788.572083 1781.833496,790.142212 
	C1770.570679,795.820190 1762.859253,804.773926 1757.727905,816.429077 
	C1753.999023,824.898438 1753.485107,833.554382 1754.100342,842.333923 
	C1755.183838,857.793030 1761.832031,870.497253 1774.293945,880.049805 
	C1787.671997,890.304871 1802.644897,892.973450 1818.941284,890.008606 
	C1829.655151,888.059509 1838.798950,882.707275 1846.085815,875.129028 
	C1857.544434,863.212341 1862.617065,848.415100 1860.895874,831.851074 
	C1859.836670,821.657898 1856.113770,812.367249 1849.713257,804.037109 
	C1843.895508,796.465393 1836.330322,791.560181 1828.000000,787.456421 
	C1828.000000,785.463074 1828.000000,783.633911 1828.000000,781.804749 
	C1828.000000,710.314819 1828.010010,638.824890 1827.953613,567.335022 
	C1827.951904,565.112915 1827.755859,562.654419 1826.818481,560.706543 
	C1818.516235,543.456177 1810.072998,526.273010 1801.581421,509.114563 
	C1785.091187,475.793640 1768.714600,442.414368 1751.876343,409.269897 
	C1748.436035,402.498138 1746.980347,396.864075 1751.786377,390.213776 
	C1753.732422,387.520874 1753.978394,383.599365 1755.000000,379.351807 
M516.990845,407.484039 
	C521.456482,410.669617 525.741699,414.164062 530.458191,416.920319 
	C533.118835,418.475220 534.060669,420.030975 534.058960,423.038544 
	C533.989746,543.340515 533.990051,663.642578 534.057861,783.944519 
	C534.059570,786.941223 533.255188,788.641296 530.439026,790.026917 
	C513.892700,798.167603 504.466797,812.073792 502.251465,829.827209 
	C499.742859,849.930847 506.018311,867.306458 522.682983,880.280457 
	C542.638245,895.816345 573.739136,894.967224 592.718018,876.656433 
	C603.833252,865.932434 609.446838,852.706665 609.070496,836.931824 
	C608.560059,815.536926 599.121826,799.825867 580.270752,789.837646 
	C577.692200,788.471436 576.938477,786.898010 576.940125,784.083679 
	C577.009766,663.615112 577.008606,543.146423 576.944153,422.677826 
	C576.942749,420.042542 577.623779,418.594574 580.082642,417.341522 
	C595.457214,409.506439 604.918274,397.148773 608.036621,380.050354 
	C612.184326,357.307190 604.987854,338.568817 586.414490,325.337921 
	C563.952759,309.337128 530.839844,313.715637 513.140198,336.119690 
	C497.201263,356.295074 498.142151,387.814575 516.990845,407.484039 
M698.091675,890.998535 
	C699.494873,890.665161 700.890808,890.297119 702.302307,890.004028 
	C712.197571,887.949097 720.922302,883.431458 728.013794,876.363342 
	C739.100647,865.313110 744.655396,851.947388 744.068604,836.003479 
	C743.303040,815.206421 733.910278,799.931458 715.752625,790.051147 
	C712.926880,788.513672 711.910278,786.924805 711.913086,783.641785 
	C712.016418,663.480957 712.015503,543.320007 711.919189,423.159149 
	C711.916504,419.827301 713.048767,418.306213 715.951538,416.920532 
	C723.425964,413.352600 729.528320,408.051819 734.318115,401.211487 
	C749.711121,379.228149 747.120728,348.786285 727.886597,330.486298 
	C716.496216,319.649139 702.571106,315.111755 686.880127,315.998749 
	C672.825134,316.793274 660.704041,322.235046 651.228271,332.464783 
	C641.283142,343.201141 636.393372,356.110535 636.940857,371.043121 
	C637.702820,391.826050 647.093872,407.122772 665.297363,416.946869 
	C668.185913,418.505737 669.082275,420.172516 669.079712,423.405182 
	C668.985107,543.399414 668.989197,663.393677 669.056641,783.387878 
	C669.058533,786.689575 668.383118,788.565979 665.046814,790.176208 
	C660.741882,792.253906 656.585632,795.130249 653.178833,798.487976 
	C641.877686,809.626221 636.368713,823.141418 636.918579,839.254700 
	C637.540649,857.480835 645.485962,871.486023 660.037354,881.982178 
	C671.152954,890.000061 683.864990,891.789795 698.091675,890.998535 
M329.964630,700.598083 
	C290.966614,634.917786 251.968597,569.237488 213.069290,503.723480 
	C220.402237,491.420532 224.422562,478.768646 222.108475,464.326599 
	C219.647583,448.968262 212.125259,436.971130 199.746414,428.035095 
	C186.211243,418.264282 170.776352,416.139618 155.038300,420.216583 
	C138.645844,424.463104 126.455528,434.551880 119.729622,450.623657 
	C115.620667,460.442200 114.023735,470.355011 115.904266,481.002289 
	C118.391251,495.083191 124.958008,506.370575 136.328964,515.072266 
	C147.159195,523.360168 159.353912,526.696167 172.780701,525.951660 
	C175.766479,525.786133 177.474854,526.694763 178.989487,529.404175 
	C185.655045,541.327942 192.487747,553.161865 199.455612,564.912292 
	C209.216370,581.372620 219.239532,597.677429 228.988251,614.144836 
	C240.536758,633.652405 251.842651,653.303528 263.382111,672.816467 
	C276.558746,695.098083 289.864502,717.303406 303.137238,739.528137 
	C314.600800,758.723511 326.157471,777.863586 337.535156,797.109619 
	C340.371094,801.906738 344.078308,806.903198 338.045593,812.249146 
	C336.953644,813.216736 336.581390,815.056580 336.013519,816.545837 
	C332.232452,826.461670 330.944092,836.540955 332.927826,847.141663 
	C336.463715,866.037231 347.401550,878.994446 364.432556,886.907593 
	C374.923523,891.782043 386.213196,892.463257 397.431671,889.927979 
	C414.926849,885.974243 427.646667,875.803406 434.992462,859.285339 
	C439.868164,848.321716 440.498505,836.992310 438.054291,825.277954 
	C434.871429,810.023438 426.229401,798.851501 413.070923,791.053406 
	C403.925873,785.633728 393.982605,783.095093 383.232849,783.901611 
	C381.560577,784.027100 378.912903,783.372131 378.197113,782.185120 
	C368.235107,765.664429 358.578278,748.960144 348.747375,732.359680 
	C342.595673,721.971924 336.276825,711.683228 329.964630,700.598083 
M2816.500000,818.000000 
	C2763.415771,818.000000 2710.331787,818.000000 2657.000488,818.000000 
	C2657.000488,788.156921 2656.972412,758.858521 2657.102539,729.560730 
	C2657.107910,728.370605 2658.358887,726.825806 2659.457764,726.063049 
	C2664.202881,722.768982 2669.620850,720.273865 2673.857666,716.450195 
	C2686.436035,705.098450 2691.750244,690.742310 2691.140381,673.693970 
	C2690.620117,659.158142 2684.923340,647.067627 2674.745361,637.528992 
	C2661.604980,625.214050 2645.706055,620.751770 2627.581055,623.901611 
	C2603.646484,628.060974 2586.532959,647.584534 2584.162598,670.148010 
	C2581.708984,693.501648 2592.163330,714.588562 2615.178223,725.648804 
	C2615.178223,770.231689 2615.178223,814.982239 2615.178223,859.938782 
	C2692.132568,859.938782 2768.740479,859.938782 2845.257568,859.938782 
	C2854.943604,882.263855 2876.166748,895.754578 2901.280518,892.776672 
	C2928.439453,889.556213 2946.722656,869.632812 2948.842529,843.681519 
	C2950.954834,817.826904 2935.527344,793.789673 2909.376221,787.457397 
	C2884.270264,781.378052 2860.437744,788.705750 2845.393311,818.000000 
	C2836.150146,818.000000 2826.825195,818.000000 2816.500000,818.000000 
M2418.500977,348.000000 
	C2412.736572,348.000000 2406.972168,348.000000 2401.217041,348.000000 
	C2401.104980,346.949829 2401.009277,346.469849 2401.009033,345.989868 
	C2401.001221,300.829742 2401.046387,255.669479 2400.908691,210.509766 
	C2400.898193,207.103897 2402.629883,206.219940 2405.106445,204.926224 
	C2420.855469,196.699249 2430.301758,183.257568 2432.726807,166.124542 
	C2435.360596,147.513657 2430.626953,130.606903 2415.924805,117.291115 
	C2402.483887,105.117455 2386.490479,101.861351 2369.551270,104.482094 
	C2356.782715,106.457573 2345.799561,113.001732 2337.599365,123.770172 
	C2326.611816,138.199005 2323.435059,153.975555 2327.862061,171.401001 
	C2332.207275,188.504303 2343.528809,199.662155 2359.138672,207.693771 
	C2359.138672,268.483948 2359.138672,329.579102 2359.138672,390.997742 
	C2394.892090,390.997742 2430.318359,390.997742 2465.591064,390.997742 
	C2477.409180,416.402191 2501.348877,427.179840 2526.843018,421.949219 
	C2551.852295,416.818085 2568.026367,395.550323 2568.817627,371.420410 
	C2569.632812,346.569824 2554.598389,322.046051 2523.803223,316.533081 
	C2503.344482,312.870544 2478.737793,320.571747 2465.399414,348.000000 
	C2450.151611,348.000000 2434.826172,348.000000 2418.500977,348.000000 
z"/>
<path fill="#030400" opacity="1.000000" stroke="none" 
	d="
M1317.666748,0.999986 
	C1326.869263,7.370258 1335.654785,13.860962 1344.622925,20.088797 
	C1374.851074,41.080173 1405.124878,62.005886 1435.418335,82.902969 
	C1459.721191,99.667755 1484.090454,116.336288 1508.407227,133.081039 
	C1532.205322,149.468719 1555.992065,165.872986 1579.750732,182.317688 
	C1602.185425,197.845840 1624.581909,213.429092 1646.984253,229.003845 
	C1653.040771,233.214569 1659.057617,237.482407 1664.888916,241.580872 
	C1596.673096,309.794037 1528.596313,377.868286 1459.888916,446.573151 
	C1528.540894,515.221191 1596.619995,583.296387 1664.813599,651.485901 
	C1645.467041,664.861084 1625.876221,678.449951 1606.238647,691.970825 
	C1578.861694,710.820435 1551.425049,729.583496 1524.061768,748.452637 
	C1506.518311,760.550293 1489.072144,772.788513 1471.562256,784.934631 
	C1442.249390,805.268188 1412.950439,825.621887 1383.588257,845.883850 
	C1362.610718,860.359802 1341.534180,874.692200 1320.521606,889.117310 
	C1319.231323,890.003113 1318.114014,891.140503 1316.000000,892.941284 
	C1316.000000,890.149109 1316.000000,888.411926 1316.000000,886.674744 
	C1316.000000,784.512939 1315.928955,682.351013 1316.178101,580.189819 
	C1316.192871,574.116333 1314.401001,570.687012 1309.285278,567.972168 
	C1290.559082,558.034302 1280.800537,533.140808 1284.840332,513.031921 
	C1289.213623,491.263855 1301.622803,477.123077 1322.669067,470.874939 
	C1343.345093,464.736694 1367.010498,471.970551 1380.247437,489.510681 
	C1395.293213,509.447357 1395.034790,536.764526 1379.454712,556.658203 
	C1375.179932,562.116638 1368.565186,565.843201 1362.711670,569.915222 
	C1360.383301,571.534912 1358.912598,572.672241 1358.916748,575.863953 
	C1359.022705,655.526672 1359.000000,735.189575 1359.000000,814.852417 
	C1359.000000,815.810913 1359.000000,816.769470 1359.000000,818.602417 
	C1439.634521,760.620300 1519.617188,703.106873 1599.360474,645.765625 
	C1533.206421,579.611877 1466.916748,513.322510 1400.570923,446.977020 
	C1467.280518,380.279572 1533.500000,314.072174 1599.949585,247.634796 
	C1519.837280,190.021957 1439.886719,132.525467 1359.427734,74.663292 
	C1359.261108,76.171158 1359.016357,77.352669 1359.016113,78.534225 
	C1358.998291,157.697113 1359.012451,236.860016 1358.947754,316.022858 
	C1358.945557,318.783661 1359.593628,320.400116 1362.221558,321.807739 
	C1381.156128,331.949677 1390.715088,347.683716 1391.087280,369.374207 
	C1391.564697,397.206696 1372.608398,418.624756 1346.771729,422.664886 
	C1316.793457,427.352631 1290.435425,409.630402 1284.934692,379.643463 
	C1281.537109,361.121735 1286.774414,345.276459 1299.074707,331.660034 
	C1302.589111,327.769562 1307.242798,324.563110 1311.957764,322.214996 
	C1315.525146,320.438293 1316.051636,318.381989 1316.049561,314.995361 
	C1315.988159,216.666763 1316.000000,118.338120 1316.000000,20.009487 
	C1316.000000,13.985430 1316.000000,7.961372 1316.000000,1.468657 
	C1316.444458,1.000000 1316.888916,1.000000 1317.666748,0.999986 
M1319.719238,545.974670 
	C1324.547363,547.982788 1329.234619,551.173096 1334.231079,551.768372 
	C1347.096802,553.301086 1357.334595,547.509949 1363.573364,536.541077 
	C1369.306763,526.460632 1368.542358,515.765442 1361.980591,505.867706 
	C1355.040649,495.399963 1341.264404,490.497894 1328.913818,494.034576 
	C1317.554443,497.287445 1307.925537,510.061371 1308.044067,522.177246 
	C1308.135986,531.586670 1312.107422,539.345276 1319.719238,545.974670 
M1327.611572,397.110382 
	C1332.739258,397.731689 1338.166626,399.751251 1342.942017,398.727997 
	C1361.830688,394.680664 1373.361572,374.158966 1363.598633,355.873840 
	C1358.022583,345.430634 1343.879150,337.039215 1330.329102,341.000519 
	C1316.586914,345.018036 1308.568115,355.139618 1308.192993,368.845184 
	C1307.831909,382.038452 1314.731934,391.485596 1327.611572,397.110382 
z"/>
<path fill="#030400" opacity="1.000000" stroke="none" 
	d="
M34.750000,1.000000 
	C46.324043,11.820471 57.648590,22.640413 68.970375,33.463245 
	C69.451645,33.923309 69.898918,34.418789 70.376030,34.883385 
	C83.103516,47.276981 95.793022,59.709927 108.571663,72.050575 
	C125.620300,88.514870 142.723404,104.922874 159.831253,121.325699 
	C174.895203,135.768860 190.004242,150.164978 205.081680,164.594101 
	C221.001373,179.829300 236.903915,195.082443 252.820099,210.321335 
	C268.255157,225.099579 283.698608,239.869049 299.137268,254.643539 
	C314.696075,269.533020 330.242828,284.435120 345.816833,299.308716 
	C352.037018,305.249146 358.235474,311.218140 364.645203,316.948853 
	C365.751434,317.937897 368.071655,318.490082 369.487793,318.074463 
	C393.238586,311.103455 419.927338,320.327698 432.157562,342.341736 
	C436.188782,349.597870 438.312195,357.015381 439.082672,365.187195 
	C440.772583,383.110413 434.794281,397.921417 421.595093,409.810760 
	C412.449890,418.048370 401.747498,422.711792 389.165558,423.078491 
	C376.964447,423.434082 365.689819,421.320343 355.478241,414.152557 
	C342.932953,405.346588 335.485809,393.734711 332.820251,378.504822 
	C331.153137,368.979645 332.706787,360.123047 334.926331,351.086182 
	C335.254059,349.751923 334.928101,347.631165 334.038452,346.719574 
	C323.914886,336.346649 313.687073,326.072876 303.359161,315.902588 
	C291.057312,303.788483 278.568939,291.863831 266.270996,279.745850 
	C238.069580,251.957047 209.951447,224.083740 181.767197,196.277496 
	C161.529877,176.311600 141.288956,156.348907 120.957802,136.478745 
	C106.230339,122.085197 91.352364,107.845665 76.000000,93.014336 
	C76.000000,94.798378 76.000000,96.324883 76.000000,97.851395 
	C76.000000,326.297028 75.999367,554.742676 76.007690,783.188293 
	C76.007790,785.888550 76.055458,787.582703 79.471527,789.496826 
	C95.887383,798.695007 106.093117,812.279602 108.142502,831.827087 
	C111.019180,859.265442 94.131538,882.855652 68.949127,889.333618 
	C50.305672,894.129456 32.927990,890.558350 18.280169,876.873718 
	C9.261015,868.447693 3.813271,858.326477 1.379040,846.129089 
	C1.000000,840.977905 1.000000,835.955811 1.384523,830.330994 
	C4.006011,813.400757 11.829167,800.369873 26.122265,792.211182 
	C32.325703,788.670288 34.185688,784.943970 34.179893,777.922119 
	C33.966240,518.948181 34.000000,259.974091 34.000000,1.000000 
	C34.000000,1.000000 34.500000,1.000000 34.750000,1.000000 
M415.000000,371.347961 
	C416.390930,353.355255 401.844635,341.340302 388.616699,340.115845 
	C368.575867,338.260742 352.201447,356.912567 357.019287,376.468262 
	C360.409271,390.228485 373.343872,400.688995 389.593018,398.919525 
	C401.511688,397.621704 414.468292,386.210114 415.000000,371.347961 
M25.951031,841.619873 
	C27.453573,855.364624 38.755367,865.831177 53.307133,866.977600 
	C65.181602,867.913147 77.701294,859.395325 82.143158,848.375549 
	C85.687103,839.583435 84.657341,825.045044 74.992271,816.175903 
	C65.843155,807.780212 52.756706,806.022705 43.056660,810.377747 
	C30.523901,816.004761 23.806156,829.235657 25.951031,841.619873 
z"/>
<path fill="#FFFFFF" opacity="1.000000" stroke="none" 
	d="
M33.531342,1.000000 
	C34.000000,259.974091 33.966240,518.948181 34.179893,777.922119 
	C34.185688,784.943970 32.325703,788.670288 26.122265,792.211182 
	C11.829167,800.369873 4.006011,813.400757 1.384523,829.864136 
	C1.000000,553.666687 1.000000,277.333344 1.000000,1.000000 
	C11.740129,1.000000 22.401405,1.000000 33.531342,1.000000 
z"/>
<path fill="#030400" opacity="1.000000" stroke="none" 
	d="
M3286.000000,637.531738 
	C3285.333496,638.990173 3284.333496,639.893311 3284.049316,640.983154 
	C3278.410889,662.612610 3264.070801,676.153870 3242.908691,680.687256 
	C3216.276855,686.392395 3188.967041,672.235229 3180.059570,643.083923 
	C3179.217529,640.328491 3178.131836,637.365417 3178.384033,634.610779 
	C3179.131348,626.448425 3172.485352,623.298279 3168.105957,618.786743 
	C3163.675293,614.222473 3158.410156,610.482056 3153.712158,606.161377 
	C3139.742432,593.313782 3125.915771,580.311035 3111.948486,567.460815 
	C3101.166504,557.540649 3090.241455,547.775696 3079.408203,537.911133 
	C3067.836670,527.374512 3056.334473,516.762085 3044.734131,506.257599 
	C3035.499512,497.895050 3026.162842,489.645050 3016.983154,481.444641 
	C3026.222656,473.280823 3035.110840,465.080170 3044.375244,457.328918 
	C3056.105957,447.514374 3068.226074,438.167023 3080.019775,428.426422 
	C3089.354736,420.716949 3098.387451,412.642242 3107.669678,404.867523 
	C3119.048340,395.336578 3130.567139,385.973267 3141.978760,376.481415 
	C3144.537354,374.353394 3146.099854,372.035370 3146.149170,368.133972 
	C3146.459961,343.435333 3164.567627,321.523163 3189.554688,316.892029 
	C3214.414307,312.284454 3237.228271,324.157867 3247.938232,345.127838 
	C3258.101562,365.027100 3254.559082,390.115448 3238.667969,407.117920 
	C3222.396484,424.527710 3193.874023,427.267700 3175.342041,417.691986 
	C3172.078857,416.005951 3169.091553,413.786255 3165.996338,411.825439 
	C3137.797119,435.503693 3109.792480,459.018494 3081.479492,482.792206 
	C3087.027100,488.052032 3092.185791,493.097260 3097.516846,497.953094 
	C3102.604980,502.588287 3107.985840,506.904205 3113.038818,511.575836 
	C3123.959473,521.672607 3134.709473,531.953430 3145.608643,542.073547 
	C3158.052734,553.627930 3170.564209,565.110596 3183.087646,576.579346 
	C3187.097656,580.251282 3191.238037,583.780396 3195.593750,587.617188 
	C3206.449463,578.530884 3219.239746,573.439819 3233.831543,574.070984 
	C3245.738525,574.585876 3256.418457,578.683472 3265.815430,586.244812 
	C3275.680176,594.182556 3281.715088,604.273315 3284.218262,616.601379 
	C3284.373047,617.364319 3284.908203,618.050110 3285.633057,618.885864 
	C3286.000000,625.021179 3286.000000,631.042297 3286.000000,637.531738 
M3261.000000,627.533386 
	C3261.270996,612.236572 3248.675781,598.152649 3232.210693,598.249817 
	C3215.410645,598.348938 3202.102051,610.601624 3202.310059,628.206482 
	C3202.520752,646.054688 3216.041748,657.942017 3232.117432,657.577576 
	C3247.341064,657.232422 3260.798096,646.363525 3261.000000,627.533386 
M3204.958740,398.981171 
	C3206.586914,398.332275 3208.209961,397.670410 3209.843994,397.036499 
	C3227.010742,390.377350 3234.228027,372.169556 3225.961670,356.429382 
	C3215.221680,335.978943 3188.718262,334.216248 3175.603760,353.005035 
	C3165.959961,366.821686 3169.466797,383.792603 3182.887939,393.508118 
	C3189.339355,398.178162 3196.411621,399.467102 3204.958740,398.981171 
z"/>
<path fill="#030400" opacity="1.000000" stroke="none" 
	d="
M3025.468750,897.000000 
	C3022.726807,895.677368 3020.561279,894.104370 3018.163330,893.072021 
	C3000.679199,885.545776 2990.091797,872.452026 2985.976807,853.923706 
	C2983.130371,841.107605 2985.089355,828.668579 2991.220215,817.568298 
	C2998.842773,803.767151 3010.594971,794.170593 3026.591553,791.035461 
	C3041.707520,788.072815 3055.965820,790.056641 3069.034424,798.850769 
	C3070.152100,799.602966 3073.000000,798.909241 3074.399414,797.948242 
	C3094.226318,784.332764 3113.926025,770.532349 3133.689941,756.824707 
	C3145.355225,748.734009 3157.082764,740.732971 3168.770508,732.674561 
	C3169.589600,732.109985 3170.311279,731.403931 3171.077393,730.764465 
	C3135.401123,702.787537 3100.005615,675.030945 3064.629639,647.289490 
	C3041.929443,658.149353 3016.635742,654.245667 3000.692871,637.984253 
	C2987.957764,624.994324 2982.959717,609.234070 2985.842285,590.751465 
	C2989.531982,567.095276 3008.352051,549.319824 3031.426514,546.234802 
	C3046.320068,544.243530 3060.366943,547.823853 3072.448242,557.831116 
	C3089.448975,571.913147 3094.655273,589.817444 3091.135986,611.009338 
	C3090.918701,612.317932 3091.830322,614.391602 3092.903809,615.250000 
	C3108.514893,627.732239 3124.275879,640.027161 3139.935303,652.449341 
	C3156.504639,665.593384 3172.941162,678.905396 3189.552002,691.996277 
	C3205.874512,704.859741 3222.347168,717.532593 3238.739258,730.307739 
	C3239.916748,731.225342 3240.974365,732.296631 3242.232666,733.426636 
	C3226.450439,744.428833 3210.955322,755.195740 3195.497070,766.015015 
	C3169.833740,783.976685 3144.190430,801.967163 3118.545898,819.955994 
	C3110.614990,825.519226 3102.638916,831.023071 3094.854736,836.785828 
	C3093.470215,837.811035 3092.037598,840.037476 3092.143799,841.606323 
	C3092.874023,852.370911 3090.352539,862.332825 3084.833252,871.406860 
	C3076.470703,885.154175 3064.280029,893.594482 3048.132324,896.618286 
	C3040.645752,897.000000 3033.291504,897.000000 3025.468750,897.000000 
M3010.997070,853.320190 
	C3015.018555,864.919189 3023.784180,871.166870 3035.326416,872.830322 
	C3047.568359,874.594482 3060.458740,866.837769 3065.367920,856.148438 
	C3070.461182,845.058716 3068.452881,831.157898 3058.870850,822.227539 
	C3049.056396,813.080505 3034.539795,811.261597 3023.117920,818.349976 
	C3012.116943,825.177185 3005.486572,841.367493 3010.997070,853.320190 
M3009.350586,603.876770 
	C3012.017334,617.041077 3020.053467,625.816528 3032.845947,628.670532 
	C3044.819580,631.341980 3055.172119,626.687073 3062.633301,616.809082 
	C3069.383057,607.872986 3070.056885,597.630920 3065.728271,587.816895 
	C3060.954590,576.993164 3051.712891,570.789368 3039.836426,570.119507 
	C3023.705566,569.209656 3007.691162,583.264160 3009.350586,603.876770 
z"/>
<path fill="#030400" opacity="1.000000" stroke="none" 
	d="
M1212.641968,790.239441 
	C1239.379883,805.047791 1247.795654,838.785522 1233.036499,864.677124 
	C1218.888062,889.497498 1186.442261,898.893311 1159.792114,884.352478 
	C1135.168457,870.917236 1124.436157,837.879761 1140.048828,809.864929 
	C1050.973755,701.692078 961.857605,593.469177 872.246338,484.645111 
	C872.246338,586.171143 872.246338,686.891541 872.246338,787.793640 
	C884.062561,792.248413 892.833313,800.721802 898.673523,811.598083 
	C906.377075,825.944641 907.634399,841.511108 901.535828,856.716248 
	C893.788574,876.031982 879.209229,888.133179 858.435974,890.813110 
	C836.826782,893.600769 816.533997,884.251282 804.863098,865.013977 
	C799.702515,856.507690 797.195862,847.251770 797.286499,837.919189 
	C797.453857,820.683838 803.679016,805.575317 818.231323,795.025635 
	C821.444458,792.696350 825.131042,791.028992 828.464172,788.849731 
	C829.255615,788.332397 829.739136,787.027161 829.938660,786.001587 
	C830.188660,784.716797 829.999939,783.346619 829.999939,782.013306 
	C830.000000,646.349365 830.000000,510.685486 830.000000,375.021576 
	C830.000000,373.211365 830.000000,371.401154 830.000000,367.849304 
	C945.570801,507.646667 1060.224854,646.335083 1174.724121,784.836121 
	C1187.924805,782.810730 1200.500977,783.634033 1212.641968,790.239441 
M876.616089,822.092590 
	C876.085144,821.472229 875.500671,820.889709 875.031128,820.225891 
	C866.405823,808.032288 849.614197,803.957947 837.032959,811.622559 
	C817.984497,823.226990 816.612183,846.969421 832.829163,860.209412 
	C846.492981,871.364868 862.961548,868.504761 873.334106,856.894165 
	C882.322876,846.832642 883.339417,834.958923 876.616089,822.092590 
M1163.406616,819.061951 
	C1161.271240,824.191833 1157.909180,829.167175 1157.239502,834.481689 
	C1155.504395,848.252930 1163.476929,860.408875 1177.193848,865.536438 
	C1189.256592,870.045654 1203.087891,865.245361 1211.186646,853.361877 
	C1221.208740,838.655945 1214.314331,819.195190 1200.487793,811.637390 
	C1189.144775,805.437195 1173.247925,807.513123 1163.406616,819.061951 
z"/>
<path fill="#030400" opacity="1.000000" stroke="none" 
	d="
M955.779968,430.283325 
	C951.650513,423.420410 946.385742,421.602753 938.560852,422.764771 
	C925.050293,424.770996 912.564331,420.973877 901.355103,412.917694 
	C891.003235,405.477661 884.259094,395.345398 881.373047,383.358002 
	C877.591675,367.651581 879.542725,352.201538 889.133789,338.636902 
	C902.578552,319.621948 924.769836,311.966827 946.808044,317.496826 
	C969.403198,323.166656 982.717346,338.629242 986.699158,361.161438 
	C988.526062,371.499420 987.768494,382.473816 982.272095,392.191376 
	C980.687683,394.992615 981.265930,396.589966 983.286926,398.960663 
	C992.377747,409.624634 1001.125366,420.580444 1010.059021,431.379395 
	C1017.142700,439.942078 1024.359497,448.394562 1031.440918,456.958984 
	C1042.036743,469.773712 1052.525879,482.676819 1063.136963,495.478790 
	C1070.440186,504.289917 1077.929077,512.947144 1085.234009,521.756897 
	C1094.285889,532.673706 1103.190186,543.713196 1112.240112,554.631714 
	C1119.437622,563.315369 1126.811890,571.852600 1134.010864,580.535095 
	C1143.165649,591.576355 1152.210083,602.709045 1161.344971,613.766907 
	C1162.112549,614.696106 1163.204346,615.357422 1165.000000,616.856567 
	C1165.000000,614.414795 1165.000000,613.004272 1165.000000,611.593811 
	C1165.000000,548.933960 1164.979614,486.274048 1165.057373,423.614258 
	C1165.061401,420.314240 1164.275635,418.579010 1161.039307,416.859070 
	C1143.079102,407.314178 1133.962158,392.074066 1132.960571,371.757111 
	C1132.158813,355.489868 1137.598145,341.646515 1149.144775,330.463196 
	C1168.330322,311.881104 1200.584961,311.284637 1220.312744,327.627716 
	C1236.110229,340.714935 1242.060913,357.544342 1239.777710,377.045959 
	C1237.705200,394.748779 1228.092407,408.394196 1212.141724,416.841461 
	C1208.773804,418.625061 1207.927979,420.430542 1207.930908,423.932465 
	C1208.016357,525.754700 1208.000000,627.576965 1208.000000,729.399231 
	C1208.000000,731.175964 1208.000000,732.952759 1208.000000,735.257751 
	C1206.939575,734.795654 1206.229614,734.709106 1205.898193,734.308960 
	C1199.243774,726.276184 1192.635376,718.205200 1186.012573,710.146179 
	C1178.869995,701.454590 1171.703247,692.782715 1164.581543,684.074036 
	C1156.023926,673.609314 1147.541748,663.082703 1138.953369,652.643250 
	C1131.998779,644.189514 1124.876953,635.873169 1117.934082,627.409790 
	C1107.808472,615.066528 1097.829102,602.603088 1087.687012,590.273499 
	C1080.627563,581.691589 1073.334106,573.302307 1066.263184,564.729492 
	C1057.766479,554.428101 1049.439697,543.986389 1040.955444,533.674500 
	C1033.895752,525.094116 1026.664307,516.655273 1019.600403,508.078308 
	C1011.005981,497.642914 1002.544922,487.097687 993.955872,476.657776 
	C987.001526,468.204742 979.903687,459.869751 972.943176,451.421722 
	C967.248840,444.510376 961.663147,437.509491 955.779968,430.283325 
M1196.338013,341.997131 
	C1185.149780,337.386261 1175.180908,340.394379 1166.734009,347.938416 
	C1151.266479,361.752563 1154.912964,385.462708 1172.368042,395.184875 
	C1183.220337,401.229462 1193.267212,399.978882 1202.921509,393.869049 
	C1211.166382,388.651123 1215.765869,380.511353 1215.926880,370.595764 
	C1216.147949,356.977722 1209.282959,347.688995 1196.338013,341.997131 
M923.604858,397.106201 
	C924.835144,397.420441 926.072693,397.709137 927.294678,398.052795 
	C943.952148,402.737091 961.291687,389.472321 962.970825,372.225616 
	C965.023926,351.137634 942.848511,334.304352 923.472900,341.838440 
	C910.471069,346.894104 901.217163,362.721130 904.769348,375.632416 
	C907.585388,385.868500 913.341919,392.778290 923.604858,397.106201 
z"/>
<path fill="#030400" opacity="1.000000" stroke="none" 
	d="
M2893.076416,316.000000 
	C2918.474365,314.649475 2939.804688,331.875580 2946.310059,352.788391 
	C2952.198730,371.718170 2948.672363,388.880341 2936.233643,404.281677 
	C2920.191895,424.144196 2893.153809,428.014648 2871.894287,418.236572 
	C2859.893311,412.716827 2851.081787,403.415466 2845.603760,391.097168 
	C2782.984131,391.097168 2720.343018,391.097168 2657.350830,391.097168 
	C2657.350830,448.154846 2657.350830,505.218384 2657.350830,562.716125 
	C2658.295654,562.793823 2659.549561,562.986023 2660.803467,562.986816 
	C2687.131104,563.004211 2713.459229,562.929077 2739.785889,563.088745 
	C2743.114746,563.108948 2744.556885,561.897339 2746.073486,559.109680 
	C2754.726807,543.203003 2767.780029,533.719360 2786.019775,530.860779 
	C2803.842773,528.067383 2818.833008,533.712830 2831.481201,545.316101 
	C2840.701172,553.773987 2845.551514,564.988770 2847.152588,577.772095 
	C2848.876221,591.534180 2845.438232,603.729675 2837.935547,614.858582 
	C2829.371094,627.562500 2817.141846,634.687134 2801.951904,637.047668 
	C2783.132568,639.972229 2767.427002,633.989441 2754.364746,620.692993 
	C2751.019531,617.287964 2748.292236,613.060547 2746.126465,608.783020 
	C2744.471924,605.515137 2742.439697,604.938599 2739.208496,604.945129 
	C2698.051270,605.028381 2656.894287,605.000000 2615.368652,605.000000 
	C2615.368652,519.429688 2615.368652,433.920929 2615.368652,348.104004 
	C2692.143555,348.104004 2768.904785,348.104004 2845.237305,348.104004 
	C2855.541748,328.686035 2870.493896,317.067078 2893.076416,316.000000 
M2914.430176,392.043457 
	C2921.870850,384.193359 2926.572021,375.530762 2924.059082,364.109558 
	C2920.958008,350.014435 2910.503662,341.108185 2896.432617,340.033783 
	C2881.275879,338.876495 2865.388916,353.533234 2865.647217,370.285339 
	C2865.858887,383.976349 2879.753174,399.412445 2894.543945,399.130676 
	C2901.900391,398.990570 2908.022217,396.408844 2914.430176,392.043457 
M2819.047607,569.491272 
	C2812.681152,558.085449 2802.928711,554.024475 2790.071045,554.864380 
	C2775.226807,555.834106 2759.767090,574.292542 2765.565186,592.278015 
	C2771.228760,609.846008 2793.152832,620.995544 2811.561523,607.295410 
	C2823.089111,598.716370 2826.410645,581.190308 2819.047607,569.491272 
z"/>
<path fill="#030400" opacity="1.000000" stroke="none" 
	d="
M2252.000000,839.861328 
	C2251.855713,815.186829 2263.128906,798.210144 2284.836914,787.430420 
	C2284.836914,655.649841 2284.836914,523.559448 2284.836914,391.234558 
	C2263.240479,391.234558 2241.805176,391.234558 2220.394531,391.234558 
	C2212.208496,408.499634 2198.804932,419.878540 2179.985596,422.695770 
	C2164.149414,425.066376 2148.905762,422.056580 2136.156250,410.759888 
	C2122.929199,399.039764 2116.367920,384.516113 2117.076660,367.016235 
	C2118.071777,342.443634 2135.831055,321.468170 2160.197998,316.990845 
	C2179.989502,313.354340 2196.901855,318.681458 2210.732422,333.317352 
	C2213.393555,336.133667 2216.465332,339.145874 2217.645508,342.642212 
	C2219.452637,347.996704 2222.872314,348.077057 2227.334473,348.061646 
	C2260.325684,347.947723 2293.317627,348.000000 2327.000000,348.000000 
	C2327.000000,350.009094 2327.000000,351.925568 2327.000000,353.842010 
	C2327.000000,496.833221 2327.005127,639.824402 2326.966797,782.815613 
	C2326.966064,786.064941 2327.315674,787.910217 2330.980713,789.838196 
	C2345.782715,797.624268 2355.588867,810.043030 2358.661865,826.538818 
	C2363.755371,853.882324 2348.939209,883.516541 2316.466309,889.999329 
	C2287.309326,895.820312 2262.860596,878.879395 2254.666504,854.095398 
	C2253.211914,849.695251 2252.860596,844.930359 2252.000000,839.861328 
M2331.982666,851.184509 
	C2332.988525,845.993835 2334.642822,840.831787 2334.874023,835.606873 
	C2335.475098,822.032959 2322.491455,809.755432 2309.943115,808.080383 
	C2291.351807,805.598694 2273.060791,821.536133 2276.891846,842.680115 
	C2279.416260,856.613159 2291.679932,866.533691 2304.865479,866.952271 
	C2316.715332,867.328613 2325.126221,861.185669 2331.982666,851.184509 
M2150.525391,347.985474 
	C2144.184082,356.039062 2139.262451,364.479431 2141.974854,375.416168 
	C2145.196289,388.405762 2154.523193,397.416718 2168.054443,398.977875 
	C2185.474121,400.987640 2200.978760,385.229370 2200.358154,368.204010 
	C2199.881592,355.125366 2186.435791,340.415588 2172.021240,339.960724 
	C2163.972412,339.706726 2157.360352,343.066284 2150.525391,347.985474 
z"/>
<path fill="#030400" opacity="1.000000" stroke="none" 
	d="
M1970.732178,505.692017 
	C1961.235840,524.588989 1951.926636,543.155884 1942.769653,561.797485 
	C1941.740112,563.893066 1941.074707,566.409790 1941.071777,568.732178 
	C1940.984009,640.224426 1941.022583,711.716675 1940.932495,783.208923 
	C1940.927979,786.749451 1942.012573,788.412109 1945.267700,790.209473 
	C1962.773438,799.875610 1972.176025,814.681702 1973.086426,834.973755 
	C1973.826660,851.476501 1968.429810,865.407227 1956.700562,876.695007 
	C1936.998291,895.655823 1904.727661,895.773254 1884.857300,878.492004 
	C1870.283569,865.817139 1864.193604,849.812988 1866.209717,831.217163 
	C1868.183594,813.012085 1877.531616,798.746155 1894.115845,790.126160 
	C1897.404663,788.416626 1898.054688,786.552246 1898.051636,783.303772 
	C1897.984131,711.978210 1897.979370,640.652588 1898.081909,569.327087 
	C1898.085693,566.702271 1898.841431,563.855652 1900.008911,561.488342 
	C1923.148926,514.568726 1946.424561,467.716095 1969.607056,420.817444 
	C1973.093994,413.763306 1976.253052,406.547089 1979.658203,399.202332 
	C1962.998169,371.742340 1971.469482,342.857605 1991.838989,327.015961 
	C2012.189575,311.189117 2039.470703,311.578064 2059.607178,328.267548 
	C2079.405273,344.676666 2085.617432,373.242493 2071.044189,397.319061 
	C2057.460449,419.760559 2035.813232,426.023376 2012.904785,422.007355 
	C1998.991089,449.667664 1984.977783,477.525879 1970.732178,505.692017 
M1948.981567,832.048462 
	C1948.376465,830.571045 1947.713257,829.114441 1947.175537,827.612854 
	C1943.063843,816.129639 1934.645386,809.513672 1922.868896,808.127808 
	C1902.673340,805.751160 1885.860229,824.939758 1891.039307,844.660034 
	C1894.221313,856.775574 1902.583496,864.046753 1914.402954,866.593689 
	C1923.983032,868.658020 1932.598999,865.385864 1939.915527,858.650574 
	C1947.549805,851.622986 1949.748413,842.846069 1948.981567,832.048462 
M2051.593750,381.925079 
	C2053.729004,376.892029 2054.673584,371.878601 2054.151611,366.199524 
	C2052.341797,346.513947 2027.965332,331.884216 2008.731201,345.007904 
	C2000.090698,350.903381 1995.287354,359.474396 1995.315796,369.411469 
	C1995.342285,378.629822 1999.439209,386.704285 2007.277344,393.040619 
	C2021.211548,404.304962 2044.205444,398.895111 2051.593750,381.925079 
z"/>
<path fill="#030400" opacity="1.000000" stroke="none" 
	d="
M1754.999023,379.794403 
	C1753.978394,383.599365 1753.732422,387.520874 1751.786377,390.213776 
	C1746.980347,396.864075 1748.436035,402.498138 1751.876343,409.269897 
	C1768.714600,442.414368 1785.091187,475.793640 1801.581421,509.114563 
	C1810.072998,526.273010 1818.516235,543.456177 1826.818481,560.706543 
	C1827.755859,562.654419 1827.951904,565.112915 1827.953613,567.335022 
	C1828.010010,638.824890 1828.000000,710.314819 1828.000000,781.804749 
	C1828.000000,783.633911 1828.000000,785.463074 1828.000000,787.456421 
	C1836.330322,791.560181 1843.895508,796.465393 1849.713257,804.037109 
	C1856.113770,812.367249 1859.836670,821.657898 1860.895874,831.851074 
	C1862.617065,848.415100 1857.544434,863.212341 1846.085815,875.129028 
	C1838.798950,882.707275 1829.655151,888.059509 1818.941284,890.008606 
	C1802.644897,892.973450 1787.671997,890.304871 1774.293945,880.049805 
	C1761.832031,870.497253 1755.183838,857.793030 1754.100342,842.333923 
	C1753.485107,833.554382 1753.999023,824.898438 1757.727905,816.429077 
	C1762.859253,804.773926 1770.570679,795.820190 1781.833496,790.142212 
	C1784.947754,788.572083 1786.087280,787.073486 1786.081909,783.578369 
	C1785.973022,711.921997 1786.016846,640.265320 1785.924683,568.608887 
	C1785.921631,566.298401 1785.186890,563.799133 1784.148193,561.708191 
	C1767.888916,528.971375 1751.568481,496.264679 1735.160767,463.601990 
	C1728.229126,449.803162 1721.062134,436.122650 1713.971436,422.328613 
	C1698.427856,424.247620 1683.624023,423.202393 1670.533936,413.198975 
	C1658.487427,403.993164 1651.014771,392.400116 1648.921143,377.172638 
	C1646.355469,358.512299 1651.897827,342.809753 1665.490601,330.140381 
	C1678.557129,317.961304 1694.151367,313.644073 1711.831909,316.939850 
	C1734.869263,321.234100 1748.651001,335.602966 1754.495972,357.494049 
	C1756.322998,364.336975 1754.922852,372.041626 1754.999023,379.794403 
M1816.518555,865.054565 
	C1829.109985,862.429565 1840.297241,846.090088 1835.998779,830.283813 
	C1832.462891,817.281128 1820.226074,806.587158 1804.133545,808.043640 
	C1791.857178,809.154846 1780.296753,819.052185 1778.149170,832.566101 
	C1774.524414,855.374878 1796.740234,872.165222 1816.518555,865.054565 
M1672.997681,372.684265 
	C1674.310425,386.889984 1684.889526,397.148682 1698.421143,398.898987 
	C1717.774292,401.402313 1734.372314,384.387115 1730.972900,364.453125 
	C1728.767700,351.521271 1717.385620,340.941772 1703.706421,340.012146 
	C1692.551270,339.254089 1684.097412,344.586945 1677.767700,352.987579 
	C1673.756592,358.310852 1671.459595,364.756775 1672.997681,372.684265 
z"/>
<path fill="#030400" opacity="1.000000" stroke="none" 
	d="
M516.730225,407.232391 
	C498.142151,387.814575 497.201263,356.295074 513.140198,336.119690 
	C530.839844,313.715637 563.952759,309.337128 586.414490,325.337921 
	C604.987854,338.568817 612.184326,357.307190 608.036621,380.050354 
	C604.918274,397.148773 595.457214,409.506439 580.082642,417.341522 
	C577.623779,418.594574 576.942749,420.042542 576.944153,422.677826 
	C577.008606,543.146423 577.009766,663.615112 576.940125,784.083679 
	C576.938477,786.898010 577.692200,788.471436 580.270752,789.837646 
	C599.121826,799.825867 608.560059,815.536926 609.070496,836.931824 
	C609.446838,852.706665 603.833252,865.932434 592.718018,876.656433 
	C573.739136,894.967224 542.638245,895.816345 522.682983,880.280457 
	C506.018311,867.306458 499.742859,849.930847 502.251465,829.827209 
	C504.466797,812.073792 513.892700,798.167603 530.439026,790.026917 
	C533.255188,788.641296 534.059570,786.941223 534.057861,783.944519 
	C533.990051,663.642578 533.989746,543.340515 534.058960,423.038544 
	C534.060669,420.030975 533.118835,418.475220 530.458191,416.920319 
	C525.741699,414.164062 521.456482,410.669617 516.730225,407.232391 
M543.513733,810.946777 
	C529.231873,815.954163 522.614624,835.002380 527.811523,847.652283 
	C534.460022,863.835693 552.369080,870.389404 565.459412,865.214539 
	C581.577454,858.842834 588.377258,841.077271 583.325378,827.686340 
	C576.981201,810.869568 557.988342,803.788147 543.513733,810.946777 
M547.811035,397.999207 
	C565.749329,402.816223 582.830872,390.319519 584.909180,372.714447 
	C587.493896,350.819916 564.342102,334.731415 545.935730,341.691650 
	C531.214417,347.258453 520.752319,366.126648 528.858276,381.995972 
	C532.928772,389.965027 539.200806,394.618591 547.811035,397.999207 
z"/>
<path fill="#030400" opacity="1.000000" stroke="none" 
	d="
M697.627319,890.999268 
	C683.864990,891.789795 671.152954,890.000061 660.037354,881.982178 
	C645.485962,871.486023 637.540649,857.480835 636.918579,839.254700 
	C636.368713,823.141418 641.877686,809.626221 653.178833,798.487976 
	C656.585632,795.130249 660.741882,792.253906 665.046814,790.176208 
	C668.383118,788.565979 669.058533,786.689575 669.056641,783.387878 
	C668.989197,663.393677 668.985107,543.399414 669.079712,423.405182 
	C669.082275,420.172516 668.185913,418.505737 665.297363,416.946869 
	C647.093872,407.122772 637.702820,391.826050 636.940857,371.043121 
	C636.393372,356.110535 641.283142,343.201141 651.228271,332.464783 
	C660.704041,322.235046 672.825134,316.793274 686.880127,315.998749 
	C702.571106,315.111755 716.496216,319.649139 727.886597,330.486298 
	C747.120728,348.786285 749.711121,379.228149 734.318115,401.211487 
	C729.528320,408.051819 723.425964,413.352600 715.951538,416.920532 
	C713.048767,418.306213 711.916504,419.827301 711.919189,423.159149 
	C712.015503,543.320007 712.016418,663.480957 711.913086,783.641785 
	C711.910278,786.924805 712.926880,788.513672 715.752625,790.051147 
	C733.910278,799.931458 743.303040,815.206421 744.068604,836.003479 
	C744.655396,851.947388 739.100647,865.313110 728.013794,876.363342 
	C720.922302,883.431458 712.197571,887.949097 702.302307,890.004028 
	C700.890808,890.297119 699.494873,890.665161 697.627319,890.999268 
M665.946594,385.478607 
	C672.319397,395.172211 681.481384,399.693542 692.870605,398.904694 
	C704.106323,398.126526 711.991028,392.090912 717.056458,381.963959 
	C723.839111,368.403687 718.782837,354.119049 708.821838,346.580658 
	C695.497864,336.497162 682.315857,338.017120 670.796204,347.900208 
	C662.187927,355.285431 656.251160,369.166656 665.946594,385.478607 
M709.418823,860.051392 
	C715.160706,854.894958 719.136230,848.529724 719.887878,840.898071 
	C721.271179,826.851440 713.924561,814.478699 699.701599,809.409485 
	C687.257202,804.974182 673.167358,809.628601 665.481445,822.129883 
	C659.667175,831.586792 659.117371,841.449951 664.857666,851.489563 
	C670.497803,861.354004 678.877930,866.286743 690.029419,867.009949 
	C697.229187,867.476868 703.145203,864.269165 709.418823,860.051392 
z"/>
<path fill="#030400" opacity="1.000000" stroke="none" 
	d="
M329.998810,700.974060 
	C336.276825,711.683228 342.595673,721.971924 348.747375,732.359680 
	C358.578278,748.960144 368.235107,765.664429 378.197113,782.185120 
	C378.912903,783.372131 381.560577,784.027100 383.232849,783.901611 
	C393.982605,783.095093 403.925873,785.633728 413.070923,791.053406 
	C426.229401,798.851501 434.871429,810.023438 438.054291,825.277954 
	C440.498505,836.992310 439.868164,848.321716 434.992462,859.285339 
	C427.646667,875.803406 414.926849,885.974243 397.431671,889.927979 
	C386.213196,892.463257 374.923523,891.782043 364.432556,886.907593 
	C347.401550,878.994446 336.463715,866.037231 332.927826,847.141663 
	C330.944092,836.540955 332.232452,826.461670 336.013519,816.545837 
	C336.581390,815.056580 336.953644,813.216736 338.045593,812.249146 
	C344.078308,806.903198 340.371094,801.906738 337.535156,797.109619 
	C326.157471,777.863586 314.600800,758.723511 303.137238,739.528137 
	C289.864502,717.303406 276.558746,695.098083 263.382111,672.816467 
	C251.842651,653.303528 240.536758,633.652405 228.988251,614.144836 
	C219.239532,597.677429 209.216370,581.372620 199.455612,564.912292 
	C192.487747,553.161865 185.655045,541.327942 178.989487,529.404175 
	C177.474854,526.694763 175.766479,525.786133 172.780701,525.951660 
	C159.353912,526.696167 147.159195,523.360168 136.328964,515.072266 
	C124.958008,506.370575 118.391251,495.083191 115.904266,481.002289 
	C114.023735,470.355011 115.620667,460.442200 119.729622,450.623657 
	C126.455528,434.551880 138.645844,424.463104 155.038300,420.216583 
	C170.776352,416.139618 186.211243,418.264282 199.746414,428.035095 
	C212.125259,436.971130 219.647583,448.968262 222.108475,464.326599 
	C224.422562,478.768646 220.402237,491.420532 213.069290,503.723480 
	C251.968597,569.237488 290.966614,634.917786 329.998810,700.974060 
M379.533417,808.930420 
	C364.806152,811.115662 351.932617,828.348450 357.535156,846.191528 
	C362.721313,862.708435 383.217865,872.280090 399.015198,863.664001 
	C414.899353,855.000549 419.202637,836.688965 411.790253,823.794006 
	C404.968628,811.926636 394.309570,806.107178 379.533417,808.930420 
M146.441391,490.961731 
	C154.360550,499.585327 163.764282,503.811646 175.642517,501.000153 
	C188.496902,497.957642 200.303589,483.588074 198.852707,471.620483 
	C196.897827,455.495514 186.055130,442.421448 168.145355,442.992065 
	C155.915802,443.381714 147.223114,449.368073 142.046036,460.159088 
	C136.887299,470.911896 138.883942,481.076508 146.441391,490.961731 
z"/>
<path fill="#030400" opacity="1.000000" stroke="none" 
	d="
M2817.000000,818.000000 
	C2826.825195,818.000000 2836.150146,818.000000 2845.393311,818.000000 
	C2860.437744,788.705750 2884.270264,781.378052 2909.376221,787.457397 
	C2935.527344,793.789673 2950.954834,817.826904 2948.842529,843.681519 
	C2946.722656,869.632812 2928.439453,889.556213 2901.280518,892.776672 
	C2876.166748,895.754578 2854.943604,882.263855 2845.257568,859.938782 
	C2768.740479,859.938782 2692.132568,859.938782 2615.178223,859.938782 
	C2615.178223,814.982239 2615.178223,770.231689 2615.178223,725.648804 
	C2592.163330,714.588562 2581.708984,693.501648 2584.162598,670.148010 
	C2586.532959,647.584534 2603.646484,628.060974 2627.581055,623.901611 
	C2645.706055,620.751770 2661.604980,625.214050 2674.745361,637.528992 
	C2684.923340,647.067627 2690.620117,659.158142 2691.140381,673.693970 
	C2691.750244,690.742310 2686.436035,705.098450 2673.857666,716.450195 
	C2669.620850,720.273865 2664.202881,722.768982 2659.457764,726.063049 
	C2658.358887,726.825806 2657.107910,728.370605 2657.102539,729.560730 
	C2656.972412,758.858521 2657.000488,788.156921 2657.000488,818.000000 
	C2710.331787,818.000000 2763.415771,818.000000 2817.000000,818.000000 
M2663.643799,690.882690 
	C2668.044189,681.558289 2668.156250,672.467834 2663.626465,662.918396 
	C2659.110107,653.397156 2644.126953,644.020813 2630.340576,647.996643 
	C2617.489990,651.702576 2608.242188,662.351196 2608.178711,675.841980 
	C2608.108398,690.728821 2616.110840,701.671387 2631.293945,705.454651 
	C2642.760498,708.311829 2653.832031,705.077332 2663.643799,690.882690 
M2866.000000,841.320129 
	C2866.743408,856.627136 2878.959229,867.902710 2894.545410,868.946411 
	C2910.648682,870.024780 2927.795898,852.189026 2924.210449,834.376038 
	C2921.352783,820.178894 2910.744873,811.955200 2900.273438,810.195923 
	C2881.347656,807.016174 2864.560547,822.110718 2866.000000,841.320129 
z"/>
<path fill="#030400" opacity="1.000000" stroke="none" 
	d="
M2419.000732,348.000000 
	C2434.826172,348.000000 2450.151611,348.000000 2465.399414,348.000000 
	C2478.737793,320.571747 2503.344482,312.870544 2523.803223,316.533081 
	C2554.598389,322.046051 2569.632812,346.569824 2568.817627,371.420410 
	C2568.026367,395.550323 2551.852295,416.818085 2526.843018,421.949219 
	C2501.348877,427.179840 2477.409180,416.402191 2465.591064,390.997742 
	C2430.318359,390.997742 2394.892090,390.997742 2359.138672,390.997742 
	C2359.138672,329.579102 2359.138672,268.483948 2359.138672,207.693771 
	C2343.528809,199.662155 2332.207275,188.504303 2327.862061,171.401001 
	C2323.435059,153.975555 2326.611816,138.199005 2337.599365,123.770172 
	C2345.799561,113.001732 2356.782715,106.457573 2369.551270,104.482094 
	C2386.490479,101.861351 2402.483887,105.117455 2415.924805,117.291115 
	C2430.626953,130.606903 2435.360596,147.513657 2432.726807,166.124542 
	C2430.301758,183.257568 2420.855469,196.699249 2405.106445,204.926224 
	C2402.629883,206.219940 2400.898193,207.103897 2400.908691,210.509766 
	C2401.046387,255.669479 2401.001221,300.829742 2401.009033,345.989868 
	C2401.009277,346.469849 2401.104980,346.949829 2401.217041,348.000000 
	C2406.972168,348.000000 2412.736572,348.000000 2419.000732,348.000000 
M2396.907227,133.382889 
	C2396.441162,133.238556 2395.898438,133.202393 2395.520264,132.934052 
	C2386.101562,126.250046 2376.236084,126.338737 2366.278320,131.346130 
	C2356.004883,136.512314 2350.584229,145.363220 2350.125977,156.557922 
	C2349.350342,175.502975 2367.993652,190.817474 2386.541016,186.064835 
	C2398.780029,182.928665 2408.939941,171.259918 2409.118408,158.510483 
	C2409.263672,148.141739 2404.843506,140.436172 2396.907227,133.382889 
M2526.149902,396.976562 
	C2529.385498,394.863068 2533.227295,393.303650 2535.751709,390.540405 
	C2546.808594,378.437683 2548.007080,361.141968 2535.335449,348.631134 
	C2526.241455,339.652496 2512.824951,337.535614 2502.351562,343.019501 
	C2492.517090,348.168793 2483.713623,359.026794 2485.920166,373.714935 
	C2488.765381,392.655090 2508.460938,404.136932 2526.149902,396.976562 
z"/>
<path fill="#FFFFFF" opacity="1.000000" stroke="none" 
	d="
M1319.399658,545.788452 
	C1312.107422,539.345276 1308.135986,531.586670 1308.044067,522.177246 
	C1307.925537,510.061371 1317.554443,497.287445 1328.913818,494.034576 
	C1341.264404,490.497894 1355.040649,495.399963 1361.980591,505.867706 
	C1368.542358,515.765442 1369.306763,526.460632 1363.573364,536.541077 
	C1357.334595,547.509949 1347.096802,553.301086 1334.231079,551.768372 
	C1329.234619,551.173096 1324.547363,547.982788 1319.399658,545.788452 
z"/>
<path fill="#FFFFFF" opacity="1.000000" stroke="none" 
	d="
M1327.212036,397.046692 
	C1314.731934,391.485596 1307.831909,382.038452 1308.192993,368.845184 
	C1308.568115,355.139618 1316.586914,345.018036 1330.329102,341.000519 
	C1343.879150,337.039215 1358.022583,345.430634 1363.598633,355.873840 
	C1373.361572,374.158966 1361.830688,394.680664 1342.942017,398.727997 
	C1338.166626,399.751251 1332.739258,397.731689 1327.212036,397.046692 
z"/>
<path fill="#FFFFFF" opacity="1.000000" stroke="none" 
	d="
M415.000000,371.807953 
	C414.468292,386.210114 401.511688,397.621704 389.593018,398.919525 
	C373.343872,400.688995 360.409271,390.228485 357.019287,376.468262 
	C352.201447,356.912567 368.575867,338.260742 388.616699,340.115845 
	C401.844635,341.340302 416.390930,353.355255 415.000000,371.807953 
z"/>
<path fill="#FFFFFF" opacity="1.000000" stroke="none" 
	d="
M25.681957,841.275879 
	C23.806156,829.235657 30.523901,816.004761 43.056660,810.377747 
	C52.756706,806.022705 65.843155,807.780212 74.992271,816.175903 
	C84.657341,825.045044 85.687103,839.583435 82.143158,848.375549 
	C77.701294,859.395325 65.181602,867.913147 53.307133,866.977600 
	C38.755367,865.831177 27.453573,855.364624 25.681957,841.275879 
z"/>
<path fill="#FFFFFF" opacity="1.000000" stroke="none" 
	d="
M3261.000000,627.998169 
	C3260.798096,646.363525 3247.341064,657.232422 3232.117432,657.577576 
	C3216.041748,657.942017 3202.520752,646.054688 3202.310059,628.206482 
	C3202.102051,610.601624 3215.410645,598.348938 3232.210693,598.249817 
	C3248.675781,598.152649 3261.270996,612.236572 3261.000000,627.998169 
z"/>
<path fill="#FFFFFF" opacity="1.000000" stroke="none" 
	d="
M3204.512207,398.989929 
	C3196.411621,399.467102 3189.339355,398.178162 3182.887939,393.508118 
	C3169.466797,383.792603 3165.959961,366.821686 3175.603760,353.005035 
	C3188.718262,334.216248 3215.221680,335.978943 3225.961670,356.429382 
	C3234.228027,372.169556 3227.010742,390.377350 3209.843994,397.036499 
	C3208.209961,397.670410 3206.586914,398.332275 3204.512207,398.989929 
z"/>
<path fill="#FFFFFF" opacity="1.000000" stroke="none" 
	d="
M3010.970459,852.906494 
	C3005.486572,841.367493 3012.116943,825.177185 3023.117920,818.349976 
	C3034.539795,811.261597 3049.056396,813.080505 3058.870850,822.227539 
	C3068.452881,831.157898 3070.461182,845.058716 3065.367920,856.148438 
	C3060.458740,866.837769 3047.568359,874.594482 3035.326416,872.830322 
	C3023.784180,871.166870 3015.018555,864.919189 3010.970459,852.906494 
z"/>
<path fill="#FFFFFF" opacity="1.000000" stroke="none" 
	d="
M3009.187744,603.464844 
	C3007.691162,583.264160 3023.705566,569.209656 3039.836426,570.119507 
	C3051.712891,570.789368 3060.954590,576.993164 3065.728271,587.816895 
	C3070.056885,597.630920 3069.383057,607.872986 3062.633301,616.809082 
	C3055.172119,626.687073 3044.819580,631.341980 3032.845947,628.670532 
	C3020.053467,625.816528 3012.017334,617.041077 3009.187744,603.464844 
z"/>
<path fill="#FFFFFF" opacity="1.000000" stroke="none" 
	d="
M876.797302,822.432739 
	C883.339417,834.958923 882.322876,846.832642 873.334106,856.894165 
	C862.961548,868.504761 846.492981,871.364868 832.829163,860.209412 
	C816.612183,846.969421 817.984497,823.226990 837.032959,811.622559 
	C849.614197,803.957947 866.405823,808.032288 875.031128,820.225891 
	C875.500671,820.889709 876.085144,821.472229 876.797302,822.432739 
z"/>
<path fill="#FFFFFF" opacity="1.000000" stroke="none" 
	d="
M1163.680664,818.816162 
	C1173.247925,807.513123 1189.144775,805.437195 1200.487793,811.637390 
	C1214.314331,819.195190 1221.208740,838.655945 1211.186646,853.361877 
	C1203.087891,865.245361 1189.256592,870.045654 1177.193848,865.536438 
	C1163.476929,860.408875 1155.504395,848.252930 1157.239502,834.481689 
	C1157.909180,829.167175 1161.271240,824.191833 1163.680664,818.816162 
z"/>
<path fill="#FFFFFF" opacity="1.000000" stroke="none" 
	d="
M1196.744141,342.010284 
	C1209.282959,347.688995 1216.147949,356.977722 1215.926880,370.595764 
	C1215.765869,380.511353 1211.166382,388.651123 1202.921509,393.869049 
	C1193.267212,399.978882 1183.220337,401.229462 1172.368042,395.184875 
	C1154.912964,385.462708 1151.266479,361.752563 1166.734009,347.938416 
	C1175.180908,340.394379 1185.149780,337.386261 1196.744141,342.010284 
z"/>
<path fill="#FFFFFF" opacity="1.000000" stroke="none" 
	d="
M923.204529,397.044128 
	C913.341919,392.778290 907.585388,385.868500 904.769348,375.632416 
	C901.217163,362.721130 910.471069,346.894104 923.472900,341.838440 
	C942.848511,334.304352 965.023926,351.137634 962.970825,372.225616 
	C961.291687,389.472321 943.952148,402.737091 927.294678,398.052795 
	C926.072693,397.709137 924.835144,397.420441 923.204529,397.044128 
z"/>
<path fill="#FFFFFF" opacity="1.000000" stroke="none" 
	d="
M2914.179443,392.317230 
	C2908.022217,396.408844 2901.900391,398.990570 2894.543945,399.130676 
	C2879.753174,399.412445 2865.858887,383.976349 2865.647217,370.285339 
	C2865.388916,353.533234 2881.275879,338.876495 2896.432617,340.033783 
	C2910.503662,341.108185 2920.958008,350.014435 2924.059082,364.109558 
	C2926.572021,375.530762 2921.870850,384.193359 2914.179443,392.317230 
z"/>
<path fill="#FFFFFF" opacity="1.000000" stroke="none" 
	d="
M2819.316406,569.772461 
	C2826.410645,581.190308 2823.089111,598.716370 2811.561523,607.295410 
	C2793.152832,620.995544 2771.228760,609.846008 2765.565186,592.278015 
	C2759.767090,574.292542 2775.226807,555.834106 2790.071045,554.864380 
	C2802.928711,554.024475 2812.681152,558.085449 2819.316406,569.772461 
z"/>
<path fill="#FFFFFF" opacity="1.000000" stroke="none" 
	d="
M2331.814209,851.532837 
	C2325.126221,861.185669 2316.715332,867.328613 2304.865479,866.952271 
	C2291.679932,866.533691 2279.416260,856.613159 2276.891846,842.680115 
	C2273.060791,821.536133 2291.351807,805.598694 2309.943115,808.080383 
	C2322.491455,809.755432 2335.475098,822.032959 2334.874023,835.606873 
	C2334.642822,840.831787 2332.988525,845.993835 2331.814209,851.532837 
z"/>
<path fill="#FFFFFF" opacity="1.000000" stroke="none" 
	d="
M2150.783691,347.716766 
	C2157.360352,343.066284 2163.972412,339.706726 2172.021240,339.960724 
	C2186.435791,340.415588 2199.881592,355.125366 2200.358154,368.204010 
	C2200.978760,385.229370 2185.474121,400.987640 2168.054443,398.977875 
	C2154.523193,397.416718 2145.196289,388.405762 2141.974854,375.416168 
	C2139.262451,364.479431 2144.184082,356.039062 2150.783691,347.716766 
z"/>
<path fill="#FFFFFF" opacity="1.000000" stroke="none" 
	d="
M1948.990234,832.496094 
	C1949.748413,842.846069 1947.549805,851.622986 1939.915527,858.650574 
	C1932.598999,865.385864 1923.983032,868.658020 1914.402954,866.593689 
	C1902.583496,864.046753 1894.221313,856.775574 1891.039307,844.660034 
	C1885.860229,824.939758 1902.673340,805.751160 1922.868896,808.127808 
	C1934.645386,809.513672 1943.063843,816.129639 1947.175537,827.612854 
	C1947.713257,829.114441 1948.376465,830.571045 1948.990234,832.496094 
z"/>
<path fill="#FFFFFF" opacity="1.000000" stroke="none" 
	d="
M2051.321777,382.208832 
	C2044.205444,398.895111 2021.211548,404.304962 2007.277344,393.040619 
	C1999.439209,386.704285 1995.342285,378.629822 1995.315796,369.411469 
	C1995.287354,359.474396 2000.090698,350.903381 2008.731201,345.007904 
	C2027.965332,331.884216 2052.341797,346.513947 2054.151611,366.199524 
	C2054.673584,371.878601 2053.729004,376.892029 2051.321777,382.208832 
z"/>
<path fill="#FFFFFF" opacity="1.000000" stroke="none" 
	d="
M1816.210449,865.336487 
	C1796.740234,872.165222 1774.524414,855.374878 1778.149170,832.566101 
	C1780.296753,819.052185 1791.857178,809.154846 1804.133545,808.043640 
	C1820.226074,806.587158 1832.462891,817.281128 1835.998779,830.283813 
	C1840.297241,846.090088 1829.109985,862.429565 1816.210449,865.336487 
z"/>
<path fill="#FFFFFF" opacity="1.000000" stroke="none" 
	d="
M1672.982666,372.254028 
	C1671.459595,364.756775 1673.756592,358.310852 1677.767700,352.987579 
	C1684.097412,344.586945 1692.551270,339.254089 1703.706421,340.012146 
	C1717.385620,340.941772 1728.767700,351.521271 1730.972900,364.453125 
	C1734.372314,384.387115 1717.774292,401.402313 1698.421143,398.898987 
	C1684.889526,397.148682 1674.310425,386.889984 1672.982666,372.254028 
z"/>
<path fill="#FFFFFF" opacity="1.000000" stroke="none" 
	d="
M543.800110,810.669556 
	C557.988342,803.788147 576.981201,810.869568 583.325378,827.686340 
	C588.377258,841.077271 581.577454,858.842834 565.459412,865.214539 
	C552.369080,870.389404 534.460022,863.835693 527.811523,847.652283 
	C522.614624,835.002380 529.231873,815.954163 543.800110,810.669556 
z"/>
<path fill="#FFFFFF" opacity="1.000000" stroke="none" 
	d="
M547.390015,397.990173 
	C539.200806,394.618591 532.928772,389.965027 528.858276,381.995972 
	C520.752319,366.126648 531.214417,347.258453 545.935730,341.691650 
	C564.342102,334.731415 587.493896,350.819916 584.909180,372.714447 
	C582.830872,390.319519 565.749329,402.816223 547.390015,397.990173 
z"/>
<path fill="#FFFFFF" opacity="1.000000" stroke="none" 
	d="
M665.682678,385.207581 
	C656.251160,369.166656 662.187927,355.285431 670.796204,347.900208 
	C682.315857,338.017120 695.497864,336.497162 708.821838,346.580658 
	C718.782837,354.119049 723.839111,368.403687 717.056458,381.963959 
	C711.991028,392.090912 704.106323,398.126526 692.870605,398.904694 
	C681.481384,399.693542 672.319397,395.172211 665.682678,385.207581 
z"/>
<path fill="#FFFFFF" opacity="1.000000" stroke="none" 
	d="
M709.170471,860.325439 
	C703.145203,864.269165 697.229187,867.476868 690.029419,867.009949 
	C678.877930,866.286743 670.497803,861.354004 664.857666,851.489563 
	C659.117371,841.449951 659.667175,831.586792 665.481445,822.129883 
	C673.167358,809.628601 687.257202,804.974182 699.701599,809.409485 
	C713.924561,814.478699 721.271179,826.851440 719.887878,840.898071 
	C719.136230,848.529724 715.160706,854.894958 709.170471,860.325439 
z"/>
<path fill="#FFFFFF" opacity="1.000000" stroke="none" 
	d="
M379.847900,808.621582 
	C394.309570,806.107178 404.968628,811.926636 411.790253,823.794006 
	C419.202637,836.688965 414.899353,855.000549 399.015198,863.664001 
	C383.217865,872.280090 362.721313,862.708435 357.535156,846.191528 
	C351.932617,828.348450 364.806152,811.115662 379.847900,808.621582 
z"/>
<path fill="#FFFFFF" opacity="1.000000" stroke="none" 
	d="
M146.195450,490.692200 
	C138.883942,481.076508 136.887299,470.911896 142.046036,460.159088 
	C147.223114,449.368073 155.915802,443.381714 168.145355,442.992065 
	C186.055130,442.421448 196.897827,455.495514 198.852707,471.620483 
	C200.303589,483.588074 188.496902,497.957642 175.642517,501.000153 
	C163.764282,503.811646 154.360550,499.585327 146.195450,490.692200 
z"/>
<path fill="#FFFFFF" opacity="1.000000" stroke="none" 
	d="
M2663.357910,691.137390 
	C2653.832031,705.077332 2642.760498,708.311829 2631.293945,705.454651 
	C2616.110840,701.671387 2608.108398,690.728821 2608.178711,675.841980 
	C2608.242188,662.351196 2617.489990,651.702576 2630.340576,647.996643 
	C2644.126953,644.020813 2659.110107,653.397156 2663.626465,662.918396 
	C2668.156250,672.467834 2668.044189,681.558289 2663.357910,691.137390 
z"/>
<path fill="#FFFFFF" opacity="1.000000" stroke="none" 
	d="
M2866.000000,840.856079 
	C2864.560547,822.110718 2881.347656,807.016174 2900.273438,810.195923 
	C2910.744873,811.955200 2921.352783,820.178894 2924.210449,834.376038 
	C2927.795898,852.189026 2910.648682,870.024780 2894.545410,868.946411 
	C2878.959229,867.902710 2866.743408,856.627136 2866.000000,840.856079 
z"/>
<path fill="#FFFFFF" opacity="1.000000" stroke="none" 
	d="
M2397.152832,133.658188 
	C2404.843506,140.436172 2409.263672,148.141739 2409.118408,158.510483 
	C2408.939941,171.259918 2398.780029,182.928665 2386.541016,186.064835 
	C2367.993652,190.817474 2349.350342,175.502975 2350.125977,156.557922 
	C2350.584229,145.363220 2356.004883,136.512314 2366.278320,131.346130 
	C2376.236084,126.338737 2386.101562,126.250046 2395.520264,132.934052 
	C2395.898438,133.202393 2396.441162,133.238556 2397.152832,133.658188 
z"/>
<path fill="#FFFFFF" opacity="1.000000" stroke="none" 
	d="
M2525.742188,396.989777 
	C2508.460938,404.136932 2488.765381,392.655090 2485.920166,373.714935 
	C2483.713623,359.026794 2492.517090,348.168793 2502.351562,343.019501 
	C2512.824951,337.535614 2526.241455,339.652496 2535.335449,348.631134 
	C2548.007080,361.141968 2546.808594,378.437683 2535.751709,390.540405 
	C2533.227295,393.303650 2529.385498,394.863068 2525.742188,396.989777 
z"/>
</svg>